<svg xmlns="http://www.w3.org/2000/svg" xmlns:xlink="http://www.w3.org/1999/xlink" width="25" height="25" version="1.1" viewBox="0 0 25 25"><title>Taiwan</title><desc>Created with Sketch.</desc><defs><circle id="path-1" cx="11.5" cy="11.5" r="11.5"/></defs><g id="Page-1" fill="none" fill-rule="evenodd" stroke="none" stroke-width="1"><g id="Sign-Up-with-Phone-/-Select-region" transform="translate(-376.000000, -352.000000)"><g id="Sign-Up-Form" transform="translate(362.000000, 230.000000)"><g id="phone-Input"><g id="selecting" transform="translate(0.000000, 45.000000)"><g id="台湾-(TaiWan)-+-flag" transform="translate(0.000000, 74.000000)"><g id="Taiwan" transform="translate(15.000000, 4.000000)"><mask id="mask-2" fill="#fff"><use xlink:href="#path-1"/></mask><use id="Oval-1" fill="#FFF" stroke="#D9D9D9" xlink:href="#path-1"/><path id="Fill-1" fill="#FC0204" d="M-6.59537778,-0.219607407 L30.5220222,-0.219607407 L30.5220222,24.2186593 L-6.59537778,24.2186593 L-6.59537778,-0.219607407 Z" mask="url(#mask-2)"/><path id="Fill-2" fill="#040285" d="M-4.78590602,-0.049237037 L11.816069,-0.049237037 L11.816069,12.9920874 L-4.78590602,12.9920874 L-4.78590602,-0.049237037 Z" mask="url(#mask-2)"/><path id="Fill-3" fill="#FFF" d="M4.28274668,5.59022858 L4.13764115,3.96790124 L5.41028796,4.90609172 L6.05446134,3.42696688 L6.71433466,4.93796735 L7.98698147,3.96790124 L7.82570025,5.57452864 L9.50083648,5.3832748 L8.50222502,6.67162155 L9.96755294,7.32388278 L8.50222502,7.94379261 L9.46848508,9.23213936 L7.8423517,9.02566134 L8.03550856,10.6479887 L6.71433466,9.66174686 L6.07063704,11.2840742 L5.44263936,9.66174686 L4.09006557,10.6798643 L4.28274668,9.04183703 L2.65661329,9.23213936 L3.63904905,7.94379261 L2.17324538,7.32388278 L3.63904905,6.67162155 L2.68848893,5.39897474 L4.28274668,5.59022858 L4.28274668,5.59022858 Z M6.05446134,5.3670991 C4.97830168,5.3670991 4.10576551,6.22916864 4.10576551,7.29200714 C4.10576551,8.35484563 4.97830168,9.21643942 6.05446134,9.21643942 C7.130621,9.21643942 8.00268141,8.35484563 8.00268141,7.29200714 C8.00268141,6.22916864 7.130621,5.3670991 6.05446134,5.3670991 L6.05446134,5.3670991 Z M6.05446134,4.98554294 C4.76516307,4.98554294 3.71945179,6.01840882 3.71945179,7.29200714 C3.71945179,8.56560546 4.76516307,9.59847134 6.05446134,9.59847134 C7.3437596,9.59847134 8.38947089,8.56560546 8.38947089,7.29200714 C8.38947089,6.01840882 7.3437596,4.98554294 6.05446134,4.98554294 L6.05446134,4.98554294 Z" mask="url(#mask-2)"/></g></g></g></g></g></g></g></svg>